<svg width="261" height="51" xmlns="http://www.w3.org/2000/svg" preserveAspectRatio="xMidYMid">
    <defs>
        <filter height="300%" width="300%" y="-100%" x="-100%" id="editing-hover"/>
    </defs>
    <g id="svg_1" filter="url(#editing-hover)">
        <g id="svg_2">
            <path id="svg_3" fill="#009777"
                  d="m31,14.28l11.19,0l-14.6,15.94l16.44,17.84l-11.19,0l-10.81,-11.78l-10.81,11.78l-11.22,0l16.41,-17.91l-14.54,-15.87l11.13,0l8.97,9.78l9.03,-9.78zm65.03,7.09l0,8.56l0,0q0,4.1 -1.41,7.54l0,0l0,0q-1.4,3.43 -3.9,5.93l0,0l0,0q-2.5,2.5 -5.92,3.89l0,0l0,0q-3.43,1.4 -7.46,1.4l0,0l-11,0l0,0q-4.03,0 -7.47,-1.4l0,0l0,0q-3.43,-1.39 -5.93,-3.89l0,0l0,0q-2.5,-2.5 -3.93,-5.93l0,0l0,0q-1.42,-3.44 -1.42,-7.54l0,0l0,-8.56l0,0q0,-4.06 1.42,-7.51l0,0l0,0q1.43,-3.46 3.93,-5.94l0,0l0,0q2.5,-2.49 5.93,-3.89l0,0l0,0q3.44,-1.41 7.47,-1.41l0,0l11,0l0,0q4.03,0 7.46,1.41l0,0l0,0q3.42,1.4 5.92,3.89l0,0l0,0q2.5,2.48 3.9,5.94l0,0l0,0q1.41,3.45 1.41,7.51l0,0zm-8.12,8.56l0,-8.56l0,0q0,-2.4 -0.77,-4.36l0,0l0,0q-0.77,-1.95 -2.16,-3.34l0,0l0,0q-1.39,-1.39 -3.34,-2.16l0,0l0,0q-1.95,-0.76 -4.3,-0.76l0,0l-11,0l0,0q-2.37,0 -4.33,0.76l0,0l0,0q-1.95,0.77 -3.35,2.16l0,0l0,0q-1.41,1.39 -2.18,3.34l0,0l0,0q-0.76,1.96 -0.76,4.36l0,0l0,8.56l0,0q0,2.41 0.76,4.36l0,0l0,0q0.77,1.96 2.18,3.35l0,0l0,0q1.4,1.39 3.35,2.15l0,0l0,0q1.96,0.77 4.33,0.77l0,0l10.94,0l0,0q2.38,0 4.33,-0.77l0,0l0,0q1.95,-0.76 3.36,-2.15l0,0l0,0q1.4,-1.39 2.17,-3.35l0,0l0,0q0.77,-1.95 0.77,-4.36l0,0zm44.65,-15.65l0,8.12l-18.28,0l0,0q-1.66,0 -2.5,0.83l0,0l0,0q-0.84,0.83 -0.84,2.42l0,0l0,22.41l-8.13,0l0,-22.41l0,0q0,-2.09 0.53,-3.75l0,0l0,0q0.53,-1.65 1.42,-2.92l0,0l0,0q0.9,-1.26 2.05,-2.15l0,0l0,0q1.16,-0.9 2.42,-1.46l0,0l0,0q1.27,-0.56 2.57,-0.83l0,0l0,0q1.29,-0.26 2.42,-0.26l0,0l18.34,0zm42.28,-14.28l0,36.65l0,0q0,2.1 -0.53,3.77l0,0l0,0q-0.53,1.67 -1.4,2.94l0,0l0,0q-0.88,1.26 -2.04,2.15l0,0l0,0q-1.15,0.89 -2.42,1.46l0,0l0,0q-1.26,0.56 -2.56,0.82l0,0l0,0q-1.3,0.27 -2.45,0.27l0,0l-14.66,0l0,0q-2.09,0 -3.75,-0.53l0,0l0,0q-1.66,-0.53 -2.92,-1.42l0,0l0,0q-1.27,-0.89 -2.16,-2.05l0,0l0,0q-0.89,-1.16 -1.45,-2.42l0,0l0,0q-0.56,-1.27 -0.83,-2.56l0,0l0,0q-0.26,-1.3 -0.26,-2.43l0,0l0,-11l0,0q0,-3.12 1.14,-5.29l0,0l0,0q1.14,-2.18 2.84,-3.53l0,0l0,0q1.7,-1.36 3.7,-1.96l0,0l0,0q2,-0.59 3.69,-0.59l0,0l14.66,0l0,8.12l-14.6,0l0,0q-1.62,0 -2.47,0.83l0,0l0,0q-0.84,0.83 -0.84,2.42l0,0l0,10.94l0,0q0,1.66 0.83,2.5l0,0l0,0q0.83,0.84 2.42,0.84l0,0l14.66,0l0,0q1.65,0 2.47,-0.84l0,0l0,0q0.81,-0.84 0.81,-2.44l0,0l0,-36.65l8.12,0zm44.1,25.47l0,0l0,0q0,1.68 -0.6,3.64l0,0l0,0q-0.59,1.95 -1.92,3.62l0,0l0,0q-1.33,1.67 -3.47,2.8l0,0l0,0q-2.14,1.12 -5.2,1.12l0,0l-14.66,0l0,-7.72l14.66,0l0,0q1.66,0 2.56,-1.01l0,0l0,0q0.91,-1.02 0.91,-2.52l0,0l0,0q0,-1.59 -1.02,-2.5l0,0l0,0q-1.01,-0.9 -2.45,-0.9l0,0l-14.66,0l0,0q-1.65,0 -2.56,1.01l0,0l0,0q-0.91,1.02 -0.91,2.52l0,0l0,11.34l0,0q0,1.63 1.02,2.53l0,0l0,0q1.02,0.91 2.52,0.91l0,0l14.59,0l0,7.75l-14.66,0l0,0q-1.68,0 -3.64,-0.59l0,0l0,0q-1.95,-0.6 -3.62,-1.93l0,0l0,0q-1.67,-1.32 -2.8,-3.46l0,0l0,0q-1.12,-2.15 -1.12,-5.21l0,0l0,-11.4l0,0q0,-1.69 0.59,-3.64l0,0l0,0q0.59,-1.96 1.92,-3.63l0,0l0,0q1.33,-1.67 3.47,-2.8l0,0l0,0q2.14,-1.12 5.2,-1.12l0,0l14.66,0l0,0q1.69,0 3.64,0.59l0,0l0,0q1.95,0.6 3.62,1.92l0,0l0,0q1.68,1.33 2.8,3.47l0,0l0,0q1.13,2.14 1.13,5.21zm35.03,-11.19l0,8.12l-18.28,0l0,0q-1.66,0 -2.5,0.83l0,0l0,0q-0.85,0.83 -0.85,2.42l0,0l0,22.41l-8.12,0l0,-22.41l0,0q0,-2.09 0.53,-3.75l0,0l0,0q0.53,-1.65 1.42,-2.92l0,0l0,0q0.89,-1.26 2.05,-2.15l0,0l0,0q1.15,-0.9 2.42,-1.46l0,0l0,0q1.27,-0.56 2.56,-0.83l0,0l0,0q1.3,-0.26 2.42,-0.26l0,0l18.35,0z"/>
        </g>
    </g>
</svg>