<svg width="367.77749023437497px" height="131.0099609375px" xmlns="http://www.w3.org/2000/svg"
     viewBox="66.11125488281252 9.495019531249994 367.77749023437497 131.0099609375"
     preserveAspectRatio="xMidYMid">
    <defs>
        <filter id="editing-hover" x="-100%" y="-100%" width="300%" height="300%">
            <feFlood flood-color="#052b4a" result="flood"></feFlood>
            <feComposite operator="in" in2="SourceAlpha" in="flood" result="shadow"></feComposite>
            <feOffset dx="-4" dy="-4" in="SourceGraphic" result="offset-1"></feOffset>
            <feOffset dx="4" dy="4" in="shadow" result="offset-2"></feOffset>
            <feMerge>
                <feMergeNode in="offset-2"></feMergeNode>
                <feMergeNode in="offset-1"></feMergeNode>
            </feMerge>
        </filter>
    </defs>
    <g filter="url(#editing-hover)">
        <g transform="translate(122.79499939084053, 99.34500122070312)">
            <path d="M31.22-33.78L42.41-33.78L27.81-17.84L44.25 0L33.06 0L22.25-11.78L11.44 0L0.22 0L16.63-17.91L2.09-33.78L13.22-33.78L22.19-24L31.22-33.78ZM96.25-26.69L96.25-18.13L96.25-18.13Q96.25-14.03 94.84-10.59L94.84-10.59L94.84-10.59Q93.44-7.16 90.94-4.66L90.94-4.66L90.94-4.66Q88.44-2.16 85.02-0.77L85.02-0.77L85.02-0.77Q81.59 0.63 77.56 0.63L77.56 0.63L66.56 0.63L66.56 0.63Q62.53 0.63 59.09-0.77L59.09-0.77L59.09-0.77Q55.66-2.16 53.16-4.66L53.16-4.66L53.16-4.66Q50.66-7.16 49.23-10.59L49.23-10.59L49.23-10.59Q47.81-14.03 47.81-18.13L47.81-18.13L47.81-26.69L47.81-26.69Q47.81-30.75 49.23-34.20L49.23-34.20L49.23-34.20Q50.66-37.66 53.16-40.14L53.16-40.14L53.16-40.14Q55.66-42.63 59.09-44.03L59.09-44.03L59.09-44.03Q62.53-45.44 66.56-45.44L66.56-45.44L77.56-45.44L77.56-45.44Q81.59-45.44 85.02-44.03L85.02-44.03L85.02-44.03Q88.44-42.63 90.94-40.14L90.94-40.14L90.94-40.14Q93.44-37.66 94.84-34.20L94.84-34.20L94.84-34.20Q96.25-30.75 96.25-26.69L96.25-26.69ZM88.13-18.13L88.13-26.69L88.13-26.69Q88.13-29.09 87.36-31.05L87.36-31.05L87.36-31.05Q86.59-33 85.20-34.39L85.20-34.39L85.20-34.39Q83.81-35.78 81.86-36.55L81.86-36.55L81.86-36.55Q79.91-37.31 77.56-37.31L77.56-37.31L66.56-37.31L66.56-37.31Q64.19-37.31 62.23-36.55L62.23-36.55L62.23-36.55Q60.28-35.78 58.88-34.39L58.88-34.39L58.88-34.39Q57.47-33 56.70-31.05L56.70-31.05L56.70-31.05Q55.94-29.09 55.94-26.69L55.94-26.69L55.94-18.13L55.94-18.13Q55.94-15.72 56.70-13.77L56.70-13.77L56.70-13.77Q57.47-11.81 58.88-10.42L58.88-10.42L58.88-10.42Q60.28-9.03 62.23-8.27L62.23-8.27L62.23-8.27Q64.19-7.50 66.56-7.50L66.56-7.50L77.50-7.50L77.50-7.50Q79.88-7.50 81.83-8.27L81.83-8.27L81.83-8.27Q83.78-9.03 85.19-10.42L85.19-10.42L85.19-10.42Q86.59-11.81 87.36-13.77L87.36-13.77L87.36-13.77Q88.13-15.72 88.13-18.13L88.13-18.13ZM132.78-33.78L132.78-25.66L114.50-25.66L114.50-25.66Q112.84-25.66 112-24.83L112-24.83L112-24.83Q111.16-24 111.16-22.41L111.16-22.41L111.16 0L103.03 0L103.03-22.41L103.03-22.41Q103.03-24.50 103.56-26.16L103.56-26.16L103.56-26.16Q104.09-27.81 104.98-29.08L104.98-29.08L104.98-29.08Q105.88-30.34 107.03-31.23L107.03-31.23L107.03-31.23Q108.19-32.13 109.45-32.69L109.45-32.69L109.45-32.69Q110.72-33.25 112.02-33.52L112.02-33.52L112.02-33.52Q113.31-33.78 114.44-33.78L114.44-33.78L132.78-33.78ZM175.06-48.06L175.06-11.41L175.06-11.41Q175.06-9.31 174.53-7.64L174.53-7.64L174.53-7.64Q174-5.97 173.13-4.70L173.13-4.70L173.13-4.70Q172.25-3.44 171.09-2.55L171.09-2.55L171.09-2.55Q169.94-1.66 168.67-1.09L168.67-1.09L168.67-1.09Q167.41-0.53 166.11-0.27L166.11-0.27L166.11-0.27Q164.81 0 163.66 0L163.66 0L149 0L149 0Q146.91 0 145.25-0.53L145.25-0.53L145.25-0.53Q143.59-1.06 142.33-1.95L142.33-1.95L142.33-1.95Q141.06-2.84 140.17-4L140.17-4L140.17-4Q139.28-5.16 138.72-6.42L138.72-6.42L138.72-6.42Q138.16-7.69 137.89-8.98L137.89-8.98L137.89-8.98Q137.63-10.28 137.63-11.41L137.63-11.41L137.63-22.41L137.63-22.41Q137.63-25.53 138.77-27.70L138.77-27.70L138.77-27.70Q139.91-29.88 141.61-31.23L141.61-31.23L141.61-31.23Q143.31-32.59 145.31-33.19L145.31-33.19L145.31-33.19Q147.31-33.78 149-33.78L149-33.78L163.66-33.78L163.66-25.66L149.06-25.66L149.06-25.66Q147.44-25.66 146.59-24.83L146.59-24.83L146.59-24.83Q145.75-24 145.75-22.41L145.75-22.41L145.75-11.47L145.75-11.47Q145.75-9.81 146.58-8.97L146.58-8.97L146.58-8.97Q147.41-8.13 149-8.13L149-8.13L163.66-8.13L163.66-8.13Q165.31-8.13 166.13-8.97L166.13-8.97L166.13-8.97Q166.94-9.81 166.94-11.41L166.94-11.41L166.94-48.06L175.06-48.06ZM219.16-22.59L219.16-22.59L219.16-22.59Q219.16-20.91 218.56-18.95L218.56-18.95L218.56-18.95Q217.97-17 216.64-15.33L216.64-15.33L216.64-15.33Q215.31-13.66 213.17-12.53L213.17-12.53L213.17-12.53Q211.03-11.41 207.97-11.41L207.97-11.41L193.31-11.41L193.31-19.13L207.97-19.13L207.97-19.13Q209.63-19.13 210.53-20.14L210.53-20.14L210.53-20.14Q211.44-21.16 211.44-22.66L211.44-22.66L211.44-22.66Q211.44-24.25 210.42-25.16L210.42-25.16L210.42-25.16Q209.41-26.06 207.97-26.06L207.97-26.06L193.31-26.06L193.31-26.06Q191.66-26.06 190.75-25.05L190.75-25.05L190.75-25.05Q189.84-24.03 189.84-22.53L189.84-22.53L189.84-11.19L189.84-11.19Q189.84-9.56 190.86-8.66L190.86-8.66L190.86-8.66Q191.88-7.75 193.38-7.75L193.38-7.75L207.97-7.75L207.97 0L193.31 0L193.31 0Q191.63 0 189.67-0.59L189.67-0.59L189.67-0.59Q187.72-1.19 186.05-2.52L186.05-2.52L186.05-2.52Q184.38-3.84 183.25-5.98L183.25-5.98L183.25-5.98Q182.13-8.13 182.13-11.19L182.13-11.19L182.13-22.59L182.13-22.59Q182.13-24.28 182.72-26.23L182.72-26.23L182.72-26.23Q183.31-28.19 184.64-29.86L184.64-29.86L184.64-29.86Q185.97-31.53 188.11-32.66L188.11-32.66L188.11-32.66Q190.25-33.78 193.31-33.78L193.31-33.78L207.97-33.78L207.97-33.78Q209.66-33.78 211.61-33.19L211.61-33.19L211.61-33.19Q213.56-32.59 215.23-31.27L215.23-31.27L215.23-31.27Q216.91-29.94 218.03-27.80L218.03-27.80L218.03-27.80Q219.16-25.66 219.16-22.59ZM254.19-33.78L254.19-25.66L235.91-25.66L235.91-25.66Q234.25-25.66 233.41-24.83L233.41-24.83L233.41-24.83Q232.56-24 232.56-22.41L232.56-22.41L232.56 0L224.44 0L224.44-22.41L224.44-22.41Q224.44-24.50 224.97-26.16L224.97-26.16L224.97-26.16Q225.50-27.81 226.39-29.08L226.39-29.08L226.39-29.08Q227.28-30.34 228.44-31.23L228.44-31.23L228.44-31.23Q229.59-32.13 230.86-32.69L230.86-32.69L230.86-32.69Q232.13-33.25 233.42-33.52L233.42-33.52L233.42-33.52Q234.72-33.78 235.84-33.78L235.84-33.78L254.19-33.78Z"
                  fill="#009777"></path>
        </g>
    </g>
    <style>text {
        font-size: 64px;
        font-family: Arial Black;
        dominant-baseline: central;
        text-anchor: middle;
        }
    </style>
</svg>